<svg preserveAspectRatio="none" width="100%" height="100%" overflow="visible" style="display: block;" viewBox="0 0 1049 159.72" fill="none" xmlns="http://www.w3.org/2000/svg">
<g id="Group 64">
<path id="Vector" d="M379.468 0.500469C435.093 -3.08159 453.124 32.3757 449.086 81.7547L351.104 81.8349C351.325 90.6349 352.192 99.698 355.193 108.019C367.01 140.796 408.786 135.243 434.796 125.695L441.605 123.297C441.799 129.964 443.601 142.537 444.609 149.065C417.753 161.674 367.194 164.425 342.854 145.455C310.34 120.116 310.586 56.0547 334.49 24.7126C346.268 9.27141 360.915 3.02187 379.468 0.500469ZM352.044 58.5896L389.055 58.6362L417.184 58.5812C414.316 34.0381 406.628 23.9887 380.818 25.0953C362.034 28.6424 356.066 41.57 352.044 58.5896Z" fill="var(--fill-0, #CAD71D)"/>
<path id="Vector_2" d="M61.643 0.503446C80.8696 -1.77363 103.655 3.56776 116.598 18.691C132.653 37.4512 132.982 58.8563 131.575 81.8727C101.569 80.8896 63.751 81.5437 33.4562 81.9471C33.6681 90.091 34.6166 99.624 37.1969 107.333C48.1856 140.16 89.4976 135.446 115.622 126.317L123.693 123.247C124.578 131.928 125.637 140.589 126.872 149.227C117.363 153.202 107.387 155.951 97.1844 157.406C51.967 164.093 8.35052 153.307 1.37248 101.076C-4.77473 55.059 8.76336 7.78778 61.643 0.503446ZM34.6392 58.5344L72.9774 58.6365L99.5528 58.6003C97.6282 33.142 87.4386 24.0369 62.3614 25.1222C45.4063 29.083 37.1071 41.9201 34.6392 58.5344Z" fill="var(--fill-0, #CAD71D)"/>
<path id="Vector_3" d="M236.819 0.490114C238.835 0.327234 240.856 0.232875 242.879 0.207021C296.166 -0.408948 290.154 44.1884 290.135 82.2324L290.167 156.473C281.973 155.853 265.71 156.314 256.968 156.277L256.969 85.2308C256.974 71.7008 257.683 57.5606 255.758 44.2013C253.762 30.3552 240.715 25.5051 228.251 28.4291C215.952 31.3151 210.267 36.8032 203.551 47.1654C189.146 74.0263 196.124 107.569 194.501 137.029C194.196 142.575 194.372 151.105 194.871 156.512C184.931 155.979 171.77 156.372 161.454 156.244L161.434 3.18732C172.073 2.99277 182.972 3.06194 193.633 3.01864C193.033 13.4197 192.856 23.4451 190.381 33.5805C202.733 13.1191 212.423 4.09738 236.819 0.490114Z" fill="var(--fill-0, #CAD71D)"/>
<path id="Vector_4" d="M654.062 0.54617C674.775 0.992796 683.762 2.56988 703.389 7.56938C701.703 16.9783 699.816 26.349 697.723 35.6745C671.532 24.6097 628.595 21.1731 611.778 49.4488C595.834 76.2625 602.649 120.464 636.787 129.046C645.121 131.142 665.84 132.311 673.586 127.921C675.014 125.448 674.555 83.2948 674.601 76.5346C680.473 76.49 701.651 75.9755 706.167 76.8294C707.104 78.155 706.839 80.352 706.819 82.0596C707.207 101.206 707.543 130.058 706.742 148.893C673.877 162.674 621.295 165.969 592.849 140.721C562.025 113.358 562.4 57.2017 589.606 27.2507C607.747 7.27788 628.33 2.04376 654.062 0.54617Z" fill="var(--fill-0, #CAD71D)"/>
<path id="Vector_5" d="M872.091 1.19961C883.675 1.56997 890.433 2.16589 901.403 5.56956L899.826 31.0608C885.368 25.1694 853.55 22.7152 841.074 32.4809C838.057 34.8284 836.132 38.3064 835.738 42.1095C834.058 57.5294 865.624 66.3915 877.105 71.5228C897.152 80.4838 913.975 93.4857 910.68 118.371C905.783 155.382 860.204 161.154 830.149 157.066C820.019 155.287 813.61 154.215 804.068 150.711L805.502 121.787C820.297 126.923 836.145 131.583 851.909 130.804C857.368 130.519 869.481 129.953 872.821 124.925C888.029 102.039 845.571 93.1296 832.54 86.6932C824.173 82.5618 820.536 80.8011 814.063 75.3673C798.338 62.1657 797.201 36.792 810.865 21.8834C826.473 5.26512 850.261 2.23571 872.091 1.19961Z" fill="var(--fill-0, #CAD71D)"/>
<path id="Vector_6" d="M546.465 0.432976C549.76 0.124022 555.187 0.265577 558.643 0.25265C558.824 11.0654 558.139 21.8322 557.435 32.6152C508.276 25.5054 512.082 83.0704 512.088 115.788L512.153 156.482C503.838 155.861 487.797 156.313 478.991 156.277L478.881 136.163C478.881 92.1567 479.366 47.2208 478.816 3.29436C489.173 2.79731 500.64 3.07329 511.093 3.11983C510.499 13.9209 509.93 27.9654 507.146 38.1628C516.042 18.0724 523.078 4.7467 546.465 0.432976Z" fill="var(--fill-0, #CAD71D)"/>
<path id="Vector_7" d="M739.756 3.11931L770.528 3.02883L770.599 123.367C770.605 127.935 771.167 154.525 769.791 156.332L767.808 156.379C757.923 156.395 748.039 156.353 738.154 156.252C737.676 119.972 738.322 83.2677 738.051 46.9417C738.018 41.9254 737.741 7.0769 738.387 3.93178L739.756 3.11931Z" fill="var(--fill-0, #CAD71D)"/>
<path id="Vector_8" d="M938.162 10.5268C938.33 10.4473 938.498 10.3691 938.673 10.2922C960.122 0.616394 1001.75 -3.8531 1024.13 4.95144C1037.72 10.2941 1043.26 16.7828 1049 29.4092V156.396L1021 156.26C1020.81 147.377 1021.78 138.487 1021.97 129.5C1010.8 149.833 995.17 157.992 972.526 159.598C931.081 162.539 910.983 111.487 939.228 82.8117C959.443 62.2844 991.61 58.628 1018.85 57.7289C1018.48 52.255 1017.89 45.4826 1015.33 40.6182C1002.05 15.3764 960.238 28.8004 941.573 38.2448C940.003 29.1953 939.487 19.7987 938.162 10.5268ZM974.193 132.905C1006.2 135.638 1016.72 107.058 1019.11 80.2742C1013.58 80.2496 1009.42 80.2153 1003.91 80.7925C990.938 82.23 972.526 84.7262 963.843 95.4678C959.786 100.493 957.906 106.933 958.623 113.353C959.734 123.361 964.702 129.841 974.193 132.905Z" fill="var(--fill-0, #CAD71D)"/>
</g>
</svg>
