<svg width="28" height="38" viewBox="0 0 28 38" fill="none" xmlns="http://www.w3.org/2000/svg">
<path d="M12.5062 11.0436C7.47452 14.452 7.80431 19.3262 11.058 23.9297C14.6056 28.9487 19.5584 32.7297 24.5716 36.1857C25.5071 36.8258 26.4489 37.3882 27.3826 38H12.9919C6.70677 33.1347 -1.0066 24.2333 5.10324 16.3499C6.86 14.0832 9.80981 12.0088 12.5062 11.0436Z" fill="#F8F8F7"/>
<path d="M2.17657 0H17.8568C19.5196 1.64498 20.5028 4.23791 20.2852 6.57038C19.9479 10.1864 17.5669 13.2719 15.0666 15.7407C14.1793 16.6168 13.1896 17.3525 12.2462 18.1498C12.3947 17.9182 12.5379 17.6833 12.6757 17.4451C16.9176 10.077 11.9282 4.65509 5.33571 1.39747C4.6476 1.06334 3.94937 0.750497 3.24201 0.459397C3.00098 0.357739 2.40213 0.133353 2.20363 0.0162637L2.17657 0Z" fill="#F8F8F7"/>
<path d="M0.807434 23.7678C0.575397 29.0217 5.8757 34.2233 9.95071 36.8069C10.5755 37.2031 11.5929 37.614 12.1195 38H2.22955C1.23666 36.3216 0.766239 34.6805 0.264696 32.8275C-0.236847 30.9744 0.0982126 26.2614 0.264696 25.6219C0.431179 24.9825 0.577808 24.3903 0.807434 23.7678Z" fill="#F8F8F7"/>
</svg>